<svg xmlns="http://www.w3.org/2000/svg" width="12.738" height="15.078" viewBox="0 0 12.738 15.078">
  <g id="Location" transform="translate(0)">
    <path id="Vector" d="M12.708,5.76A6.37,6.37,0,1,0,1.873,10.877l3.971,3.979a.749.749,0,0,0,1.064,0l3.956-3.979A6.339,6.339,0,0,0,12.708,5.76ZM9.816,9.821,6.369,13.268,2.922,9.821a4.863,4.863,0,0,1-1.4-3.911A4.923,4.923,0,0,1,3.687,2.291a4.848,4.848,0,0,1,5.365,0,4.923,4.923,0,0,1,2.165,3.6,4.863,4.863,0,0,1-1.4,3.926ZM6.369,3.04a3.379,3.379,0,1,0,2.382.99,3.372,3.372,0,0,0-2.382-.99Zm0,5.245a1.873,1.873,0,1,1,1.325-.549,1.873,1.873,0,0,1-1.325.549Z" transform="translate(0)" fill="#00043d"/>
  </g>
</svg>
